<svg xmlns="http://www.w3.org/2000/svg" width="35.68" height="35.719" viewBox="0 0 35.68 35.719">
  <defs>
    <style>
      .cls-1 {
        fill: #f2f2f2;
        fill-rule: evenodd;
      }
    </style>
  </defs>
  <path id="Wallet_ico" data-name="Wallet ico" class="cls-1" d="M1767.61,66.716h-28.73a2.728,2.728,0,0,1-2.73-2.727V42.774a2.728,2.728,0,0,1,2.73-2.727h28.73a2.728,2.728,0,0,1,2.73,2.727V63.989A2.728,2.728,0,0,1,1767.61,66.716Zm-28.73-25.437a1.5,1.5,0,0,0-1.5,1.5V63.989a1.5,1.5,0,0,0,1.5,1.5h28.73a1.5,1.5,0,0,0,1.5-1.5V42.774a1.5,1.5,0,0,0-1.5-1.5h-28.73Zm30.71,16.368h-6.66a4.3,4.3,0,0,1-4.29-4.291v-0.1a4.3,4.3,0,0,1,4.29-4.291h6.66a2.259,2.259,0,0,1,2.26,2.258v4.17A2.259,2.259,0,0,1,1769.59,57.646Zm-6.66-7.454a3.061,3.061,0,0,0-3.06,3.059v0.1a3.061,3.061,0,0,0,3.06,3.059h6.66a1.028,1.028,0,0,0,1.03-1.026v-4.17a1.028,1.028,0,0,0-1.03-1.026h-6.66Zm1.42,3.15a1.445,1.445,0,1,1-1.45-1.446A1.449,1.449,0,0,1,1764.35,53.342Zm2.29-12.064a0.662,0.662,0,0,1-.46-0.192l-8.52-8.5-8.4,8.39a0.659,0.659,0,0,1-.93-0.934l8.86-8.855a0.658,0.658,0,0,1,.93,0l8.99,8.96a0.656,0.656,0,0,1,0,.933A0.664,0.664,0,0,1,1766.64,41.278Zm-7.53,0a0.662,0.662,0,0,1-.46-0.192l-8.52-8.5-8.4,8.39a0.659,0.659,0,0,1-.93-0.934l8.86-8.855a0.658,0.658,0,0,1,.93,0l8.99,8.96a0.656,0.656,0,0,1,0,.933A0.664,0.664,0,0,1,1759.11,41.278Z" transform="translate(-1736.16 -31)"/>
</svg>
