<svg xmlns="http://www.w3.org/2000/svg" width="285.59" height="214.22" viewBox="0 0 285.59 214.22">
  <defs>
    <style>
      .cls-1 {
        fill: #4eb4e6;
        fill-opacity: 0.2;
        fill-rule: evenodd;
      }
    </style>
  </defs>
  <path id="Shape_2_copy" data-name="Shape 2 copy" class="cls-1" d="M1257.84,2960.22L1201,3021l31.88-.53v37.05h49.92v-37.05l31.2-.47Zm77.33-71.45a88.482,88.482,0,0,0-154.66,0,65.851,65.851,0,0,0,.36,131.7h0.34L1201,3001l-5-1-16-1c-23.51,0-44-20.48-44-44,0-20.22,15.09-41.64,34-46a56.138,56.138,0,0,1,11-1c4.91,0,10,3.14,13.87,6.37,2.13-7.65,3.56-15.12,8.13-21.37,11.9-16.29,33.33-30,55-30s44.1,13.71,56,30a64.815,64.815,0,0,1,10,21c4.39-1.53,5.9-2.04,10.8-2.04a42.655,42.655,0,0,1,0,85.31h-23.53l23.19,23.2h0.34A65.851,65.851,0,0,0,1335.17,2888.77Z" transform="translate(-1115.03 -2843.28)"/>
</svg>
