<svg xmlns="http://www.w3.org/2000/svg" width="151.62" height="179.59" viewBox="0 0 151.62 179.59">
  <defs>
    <style>
      .cls-1 {
        fill: #4eb4e6;
        fill-opacity: 0.2;
        fill-rule: evenodd;
      }
    </style>
  </defs>
  <path id="Shape_3_copy" data-name="Shape 3 copy" class="cls-1" d="M1658.37,2927.15v-70.74h70.9l80.73,79.51-28.76,28.39,14.01,35.41L1701.7,3036Zm20.49,19.06,28.69,73.46,74.75-26.39-8.75-21.39-34.63,34.18Zm-11.01-79.27v52.18l72.65,69.84,52.16-55.15-68.9-66.66Zm88.73,92.41-67.88-87.97a14.971,14.971,0,1,1-15.17,14.97A15.073,15.073,0,0,1,1688.7,2871.38Zm0,7.49a7.481,7.481,0,1,1-7.58,7.48A7.535,7.535,0,0,1,1688.7,2878.87Z" transform="translate(-1658.38 -2856.41)"/>
</svg>
