<svg xmlns="http://www.w3.org/2000/svg" width="239" height="202" viewBox="0 0 239 202">
  <defs>
    <style>
      .cls-1 {
        fill: #4eb4e6;
        fill-opacity: 0.3;
        fill-rule: evenodd;
      }
    </style>
  </defs>
  <path id="Shape_1_copy" data-name="Shape 1 copy" class="cls-1" d="M885.68,2923.37a19.416,19.416,0,0,0-4.838-7.25v-41.69c-1.636-16.25-14.593-29.42-30.576-29.42H677.922a29.182,29.182,0,0,0-28.94,29.42V3017.6a29.18,29.18,0,0,0,28.94,29.41H850.266c15.983,0,28.94-13.17,30.576-29.41v-41.69a19.5,19.5,0,0,0,4.838-7.25c2.316-6.05,2.31-13.52,2.3-21.42v-2.45C887.99,2936.89,888,2929.42,885.68,2923.37Zm-19.487,2.16c4.991,0,5.619,1.64,6.174,3.1,1.344,3.51,1.34,9.65,1.334,16.15v2.47c0.006,6.5.01,12.64-1.334,16.15-0.555,1.45-1.183,3.1-6.174,3.1H797.346a20.488,20.488,0,0,1,0-40.97h68.847ZM850.266,3032.5H677.922a14.8,14.8,0,0,1-14.657-14.9V2874.43a14.794,14.794,0,0,1,14.657-14.9H850.266a14.794,14.794,0,0,1,14.658,14.9v36.59H797.346c-18.99,0-34.437,15.7-34.437,34.99s15.447,35,34.437,35h67.578v36.59A14.8,14.8,0,0,1,850.266,3032.5Zm-60.322-86.49a9.225,9.225,0,1,0,9.224-9.37A9.3,9.3,0,0,0,789.944,2946.01Z" transform="translate(-648.969 -2845)"/>
</svg>
